<!DOCTYPE svg PUBLIC "-//W3C//DTD SVG 1.1//EN" "http://www.w3.org/Graphics/SVG/1.1/DTD/svg11.dtd">
<!-- Uploaded to: SVG Repo, www.svgrepo.com, Transformed by: SVG Repo Mixer Tools -->
<svg version="1.1" id="Layer_1" xmlns="http://www.w3.org/2000/svg" xmlns:xlink="http://www.w3.org/1999/xlink" viewBox="0 0 512.80 512.80" xml:space="preserve" width="71px" height="71px" fill="#000000" stroke="#000000" stroke-width="0.005128">
<g id="SVGRepo_bgCarrier" stroke-width="0"/>
<g id="SVGRepo_tracerCarrier" stroke-linecap="round" stroke-linejoin="round"/>
<g id="SVGRepo_iconCarrier"> <path style="fill:#42210B;" d="M512.4,73.6v365.6c0,40-32.8,73.6-73.6,73.6H264.4h-16H74c-40,0-73.6-32.8-73.6-73.6V73.6 C0.4,32.8,33.2,0,74,0h365.6C479.6,0,512.4,32.8,512.4,73.6z M496.4,438.4V176v-32V73.6c0-32-25.6-57.6-57.6-57.6H264.4v104h16 c4,0,8,3.2,8,8v216c0,4-4,8-8,8h-16v144h104V352h-16c-4,0-8-4-8-8V125.6c0-20.8,16.8-37.6,37.6-37.6h34.4c31.2,0,56,24.8,56,56v32 c0,31.2-25.6,56-56,56h-8v112c0,4-4,8-8,8h-16v144h54.4C470.8,496,496.4,470.4,496.4,438.4z M456.4,176v-32c0-8-2.4-16-6.4-22.4 c-7.2-10.4-20-17.6-33.6-17.6H382c-12,0-21.6,9.6-21.6,21.6V192v112h32v-80c0-4,4-8,8-8h16c13.6,0,26.4-7.2,33.6-17.6 C454,192,456.4,184,456.4,176z M392.4,336v-16h-32v16H392.4z M272.4,336v-16h-32v16H272.4z M272.4,304V168h-32v136H272.4z M272.4,152v-16h-32v16H272.4z M248.4,496V352h-16c-4,0-8-4-8-8V128c0-4.8,4-8,8-8h16V16H74c-32,0-57.6,25.6-57.6,57.6V144v32v263.2 c0,32,25.6,57.6,57.6,57.6h54.4V352h-16c-4.8,0-8-4-8-8V232h-8c-31.2,0-56-24.8-56-56v-32c0-31.2,24.8-56,56-56h34.4 c20.8,0,37.6,16.8,37.6,37.6V344c0,4-4,8-8,8h-16v144H248.4z M152.4,336v-16h-32v16H152.4z M152.4,304V192v-66.4 c0-12-9.6-21.6-21.6-21.6H96.4c-13.6,0-26.4,7.2-33.6,17.6c-4,6.4-6.4,14.4-6.4,22.4v32c0,8,2.4,16,6.4,22.4 c7.2,10.4,20,17.6,33.6,17.6h16c4.8,0,8,4,8,8v80H152.4z"/> <path style="fill:#B37D4D;" d="M438.8,16H264.4v104h16c4,0,8,4,8,8v216c0,4-4,8-8,8h-16v144h104V352h-16c-4,0-8-4-8-8V125.6 c0-20.8,16.8-37.6,37.6-37.6h34.4c31.2,0,56,24.8,56,56v32c0,31.2-25.6,56-56,56h-8v112c0,4-4,8-8,8h-16v144h54.4 c31.2,0,57.6-25.6,57.6-57.6V176v-32V73.6C496.4,41.6,470.8,16,438.8,16z"/> <path style="fill:#FFF8EF;" d="M450,121.6c-7.2-10.4-20-17.6-33.6-17.6H382c-12,0-21.6,9.6-21.6,21.6V192v112h32v-80c0-4,4-8,8-8h16 c13.6,0,26.4-7.2,33.6-17.6c4-6.4,6.4-14.4,6.4-22.4v-32C456.4,136,454,128,450,121.6z M384.4,208c-8.8,0-16-7.2-16-16s7.2-16,16-16 s16,7.2,16,16S393.2,208,384.4,208z M448.4,192c0,1.6-0.8,3.2-1.6,4.8c-0.8,1.6-4,3.2-6.4,3.2h-24c-4,0-8-4-8-8v-64c0-4,4-8,8-8h24 c2.4,0,5.6,1.6,6.4,3.2s1.6,2.4,1.6,4.8V192z"/> <g> <path style="fill:#42210B;" d="M448.4,128v64c0,1.6-0.8,3.2-1.6,4.8c-0.8,1.6-4,3.2-6.4,3.2h-24c-4,0-8-4-8-8v-64c0-4.8,4-8,8-8h24 c2.4,0,5.6,1.6,6.4,3.2C447.6,124.8,448.4,126.4,448.4,128z M432.4,184v-48h-8v48H432.4z"/> <circle style="fill:#42210B;" cx="384.4" cy="192" r="16"/> </g> <g> <rect x="360.4" y="320" style="fill:#CC9966;" width="32" height="16"/> <rect x="240.4" y="320" style="fill:#CC9966;" width="32" height="16"/> </g> <g> <rect x="240.4" y="168" style="fill:#FFF8EF;" width="32" height="136"/> <rect x="240.4" y="136" style="fill:#FFF8EF;" width="32" height="16"/> </g> <rect x="120.4" y="320" style="fill:#CC9966;" width="32" height="16"/> <path style="fill:#FFF8EF;" d="M130.8,104H96.4c-13.6,0-26.4,7.2-33.6,17.6c-4,6.4-6.4,14.4-6.4,22.4v32c0,8,2.4,16,6.4,22.4 c7.2,10.4,20,17.6,33.6,17.6h16c4,0,8,4,8,8v80h32V192v-66.4C152.4,113.6,142.8,104,130.8,104z M96.4,200h-24 c-2.4,0-5.6-1.6-6.4-3.2c-0.8-1.6-1.6-3.2-1.6-4.8v-64c0-1.6,0.8-3.2,1.6-4.8c0.8-1.6,4-3.2,6.4-3.2h24c4,0,8,4,8,8v64 C104.4,196,100.4,200,96.4,200z M128.4,208c-8.8,0-16-7.2-16-16s7.2-16,16-16s16,7.2,16,16S137.2,208,128.4,208z"/> <circle style="fill:#42210B;" cx="128.4" cy="192" r="16"/> <path style="fill:#B37D4D;" d="M232.4,120h16V16H74c-32,0-57.6,25.6-57.6,57.6V144v32v263.2c0,32,25.6,57.6,57.6,57.6h54.4V352h-16 c-4,0-8-4-8-8V232h-8c-31.2,0-56-25.6-56-56v-32c0-31.2,25.6-56,56-56h34.4c20.8,0,37.6,16.8,37.6,37.6V344c0,4-4,8-8,8h-16v144h104 V352h-16c-4,0-8-4-8-8V128C224.4,124,228.4,120,232.4,120z"/> <path style="fill:#42210B;" d="M104.4,128v64c0,4-3.2,8-8,8h-24c-2.4,0-4.8-1.6-6.4-3.2c-0.8-1.6-1.6-3.2-1.6-4.8v-64 c0-1.6,0.8-3.2,1.6-4.8c1.6-1.6,4-3.2,6.4-3.2h24C101.2,120,104.4,123.2,104.4,128z M88.4,184v-48h-8v48H88.4z"/> <g> <path style="fill:#E4C6A1;" d="M232.4,120h16V32h-164c-28.8,0-52,23.2-52,52v344c0,28.8,23.2,52,52,52h44V352h-16c-4,0-8-4-8-8V232 h-8c-31.2,0-56-25.6-56-56v-32c0-31.2,25.6-56,56-56h34.4c20.8,0,37.6,16.8,37.6,37.6V344c0,4-4,8-8,8h-16v128h104V352h-16 c-4,0-8-4-8-8V128C224.4,124,228.4,120,232.4,120z"/> <path style="fill:#E4C6A1;" d="M428.4,32h-164v88h16c4,0,8,4,8,8v216c0,4-4,8-8,8h-16v128h104V352h-16c-4,0-8-4-8-8V125.6 c0-20.8,16.8-37.6,37.6-37.6h34.4c31.2,0,56,24.8,56,56v32c0,31.2-25.6,56-56,56h-8v112c0,4-4,8-8,8h-16v128h44 c28.8,0,52-23.2,52-52V84C480.4,55.2,457.2,32,428.4,32z"/> </g> </g>
</svg>